:SAMPLES-PER-SECOND 30
:FULLY-SPECIFIED
:DEGREES
378
root  -54.8862 32.6255 -22.6806 15.0164 -20.3593 -3.15356
RightUpLeg  -35.7495 -9.72593 -11.4407
RightLeg  9.81563 -7.47304 -0.79781
RightFoot  -6.78553 0.0325555 0.926784
RightToes  -29.8352 -0.142788 -0.250819
Spine  5.25616 -3.62715 1.28195
Spine1  10.1501 -6.79367 0.34595
HEad  25.8784 20.9776 -8.32269
LeftShoulder1  0 -2.42657e-020 -4.95415e-022
LeftArm  -5.22834 19.5799 -72.976
LeftForeArm  51.8089 -37.6611 -7.79085
LeftHand  1.36939 -14.1776 -11.3539
RightShoulder  0 2.42657e-020 1.07489e-018
RightArm  -22.7061 -12.9411 74.7127
RightForeArm  152.221 74.9667 138.183
RightHand  -3.69892 23.0208 -17.6549
LeftUpLeg  5.10239 -7.69874 -3.39984
LeftLeg  29.499 -4.0454 -1.95837
LeftFoot  1.51285 0.00114649 -0.0868455
LeftToes  10.9087 2.37847e-007 4.89147e-008
379
root  -57.2475 31.9115 -20.3834 14.1784 -16.6146 -2.97531
RightUpLeg  -35.5815 -9.10411 -14.3439
RightLeg  9.74689 -5.42928 -0.573685
RightFoot  -6.19862 0.0140867 0.637781
RightToes  -37.6502 -0.199989 -0.301467
Spine  5.11146 -5.15177 1.44395
Spine1  9.86332 -9.86746 0.550498
HEad  25.3781 23.1265 -8.71027
LeftShoulder1  0 -2.42657e-020 -4.95415e-022
LeftArm  -6.2904 20.9808 -73.4729
LeftForeArm  51.1693 -37.0027 -7.60619
LeftHand  1.23832 -13.4975 -10.8114
RightShoulder  0 2.42657e-020 1.07489e-018
RightArm  -20.9662 -12.827 75.2311
RightForeArm  165.333 70.9149 148.761
RightHand  -4.37651 22.7156 -21.1768
LeftUpLeg  6.67487 -6.19686 -0.636277
LeftLeg  34.9222 -0.0503591 -0.0350154
LeftFoot  4.93072 -0.00139642 0.0324242
LeftToes  8.94526 2.37847e-007 4.89147e-008
380
root  -59.7526 30.8063 -18.1292 13.3397 -13.9039 -5.39038
RightUpLeg  -35.8808 -7.50749 -13.5051
RightLeg  15.8628 -4.05792 -0.874231
RightFoot  -4.40681 -0.00010411 0.374902
RightToes  -41.2447 -0.228502 -0.322045
Spine  5.4893 -5.99616 2.29382
Spine1  10.6389 -11.5174 1.77934
HEad  24.7503 25.6235 -9.31226
LeftShoulder1  0 -2.42657e-020 -4.95415e-022
LeftArm  -9.12595 21.4093 -75.1794
LeftForeArm  51.7049 -36.4485 -7.45116
LeftHand  1.15978 -13.0427 -10.4951
RightShoulder  0 2.42657e-020 1.07489e-018
RightArm  -19.6071 -9.73546 75.0636
RightForeArm  177.143 67.0847 154.839
RightHand  -5.11437 24.3911 -22.9865
LeftUpLeg  6.80518 -4.69355 3.94881
LeftLeg  44.8969 6.0543 5.27189
LeftFoot  4.1988 -0.0235773 0.643155
LeftToes  7.11009 2.37847e-007 4.89147e-008
381
root  -61.9833 29.3512 -16.056 12.0092 -12.5182 -7.11166
RightUpLeg  -41.7839 -11.6041 -10.0576
RightLeg  34.8129 4.80522 2.88237
RightFoot  4.65899 -0.00894318 0.597303
RightToes  -58.5522 -0.38093 -0.394316
Spine  6.12848 -6.09054 2.7914
Spine1  11.906 -11.5565 2.14989
HEad  23.0658 27.6985 -10.5626
LeftShoulder1  0 -2.42657e-020 -4.95415e-022
LeftArm  -11.7812 20.3692 -76.6975
LeftForeArm  51.5468 -35.7215 -7.25293
LeftHand  1.12313 -12.2973 -10.7732
RightShoulder  0 2.42657e-020 1.07489e-018
RightArm  -16.8809 -3.27434 74.3289
RightForeArm  -174.971 64.3233 158.023
RightHand  -5.62568 26.4917 -23.215
LeftUpLeg  4.42285 -6.61668 4.468
LeftLeg  59.233 5.22031 7.54544
LeftFoot  -3.1942 -0.0121326 -0.435148
LeftToes  7.84605 2.37847e-007 4.89147e-008
382
root  -63.825 28.05 -14.139 10.1118 -12.3906 -10.7429
RightUpLeg  -44.626 -14.0418 -5.29338
RightLeg  50.8352 6.49623 6.90856
RightFoot  3.0156 -0.0107346 0.785183
RightToes  -61.4664 -0.408433 -0.401818
Spine  7.70451 -4.81731 3.79595
Spine1  15.1166 -8.65346 2.62078
HEad  22.0713 28.1761 -10.0613
LeftShoulder1  0 -2.42657e-020 -4.95415e-022
LeftArm  -14.4186 15.6946 -79.1862
LeftForeArm  50.7438 -33.3395 -6.6292
LeftHand  0.901678 -11.7005 -9.15832
RightShoulder  0 2.42657e-020 1.07489e-018
RightArm  -16.1845 4.42803 72.8191
RightForeArm  -175.5 65.8003 156.424
RightHand  -5.03582 28.2647 -19.4478
LeftUpLeg  0.162905 -7.9286 4.33096
LeftLeg  75.4962 1.64869 4.98432
LeftFoot  -9.38601 -0.057274 -0.697681
LeftToes  4.82403 2.37847e-007 4.89147e-008
